Coordinates
version=1
nRows=11
nColumns=32
inDegrees=yes

Units are S.I. units (second, meters, Newtons, ...)
If the header above contains a line with 'inDegrees', this indicates whether rotational values are in degrees (yes) or radians (no).

endheader
time	pelvis_tilt	pelvis_list	pelvis_rotation	pelvis_tx	pelvis_ty	pelvis_tz	hip_flexion_r	hip_adduction_r	hip_rotation_r	knee_angle_r	knee_adduction_r	med_cond_adduction_r	lat_cond_adduction_r	patella_r_constrained_knee_angle	ankle_angle_r	subtalar_angle_r	mtp_angle_r	hip_flexion_l	hip_adduction_l	hip_rotation_l	knee_angle_l	knee_adduction_l	med_cond_adduction_l	lat_cond_adduction_l	patella_l_constrained_knee_angle	ankle_angle_l	subtalar_angle_l	mtp_angle_l	lumbar_extension	lumbar_bending	lumbar_rotation
      2.42000000	    -15.94575879	     -2.39904374	     -2.21817272	      0.14140962	      0.53410519	     -1.19428253	     90.26076852	    -43.49806333	     -4.15787406	   -106.15881492	     -8.78440046	     -0.00000000	      0.00000000	     -1.85282085	     26.24449991	     18.87892355	      0.00000000	     98.89791912	    -48.06441737	      2.72573591	   -107.34509110	     -8.89840016	      0.00000000	      0.00000000	     -1.87352528	     23.68929876	     19.63611540	      0.00000000	    -23.55416556	      4.45368264	      0.09208050
      2.42500000	    -16.23391397	     -2.32337985	     -2.22324452	      0.14116721	      0.53823186	     -1.19407920	     89.88335499	    -43.33523986	     -4.41449687	   -105.42335120	     -8.59699150	      0.00000000	      0.00000000	     -1.83998459	     26.00897004	     18.87953767	      0.00000000	     98.24953284	    -48.01265562	      2.09279805	   -106.57776240	     -8.75978139	     -0.00000000	     -0.00000000	     -1.86013286	     23.47806664	     19.63688623	      0.00000000	    -23.18345309	      4.36467198	      0.09937456
      2.43000000	    -16.52034686	     -2.34995349	     -2.17131491	      0.14097602	      0.54234470	     -1.19408409	     89.36943565	    -43.25238219	     -4.82238143	   -104.67740921	     -8.38871136	     -0.00000000	     -0.00000000	     -1.82696544	     25.80848280	     18.88523322	     -0.00000000	     97.73640111	    -47.87183819	      1.65316823	   -105.81941296	     -8.60335932	      0.00000000	      0.00000000	     -1.84689717	     23.22507405	     19.63597436	     -0.00000000	    -22.79780681	      4.31563097	     -0.10241377
      2.43500000	    -16.80048258	     -2.17495476	     -2.27841551	      0.14078156	      0.54647752	     -1.19354808	     89.10780685	    -42.96600418	     -4.85607966	   -103.94034019	     -8.12986522	      0.00000000	      0.00000000	     -1.81410116	     25.53192576	     18.87105077	     -0.00000000	     96.94857854	    -47.93923976	      0.93810092	   -105.02709621	     -8.41044090	      0.00000000	     -0.00000000	     -1.83306863	     23.10275765	     19.63855698	     -0.00000000	    -22.42223689	      4.16673281	      0.17574802
      2.44000000	    -17.10102215	     -2.29425301	     -2.22153406	      0.14064457	      0.55051104	     -1.19362022	     88.50516352	    -42.88749542	     -5.37276460	   -103.17588655	     -7.88715724	      0.00000000	      0.00000000	     -1.80075893	     25.31807177	     18.88080484	     -0.00000000	     96.58280913	    -47.77316354	      0.75854969	   -104.26985156	     -8.17072784	      0.00000000	      0.00000000	     -1.81985222	     22.83561273	     19.63892638	      0.00000000	    -21.99736693	      4.36472774	      0.18919668
      2.44500000	    -17.39031855	     -2.22059677	     -2.23502571	      0.14051689	      0.55458695	     -1.19334997	     88.12485287	    -42.72721136	     -5.52939930	   -102.42414482	     -7.58207893	     -0.00000000	     -0.00000000	     -1.78763856	     25.08711539	     18.88403768	      0.00000000	     95.94641905	    -47.71107241	      0.26186801	   -103.48161225	     -7.92871759	      0.00000000	     -0.00000000	     -1.80609485	     22.61050980	     19.64021989	      0.00000000	    -21.56772816	      4.32153905	      0.28640017
      2.45000000	    -17.69925561	     -2.24458022	     -2.19931689	      0.14043496	      0.55858858	     -1.19328877	     87.65203465	    -42.62680396	     -5.81683377	   -101.65716134	     -7.26320614	     -0.00000000	     -0.00000000	     -1.77425217	     24.86908122	     18.89702018	     -0.00000000	     95.46913831	    -47.57690086	     -0.04603570	   -102.70745746	     -7.66425010	     -0.00000000	     -0.00000000	     -1.79258330	     22.34532248	     19.64085027	     -0.00000000	    -21.08124873	      4.20175547	     -0.01241226
      2.45500000	    -18.04541800	     -2.26023084	     -2.21546010	      0.14033254	      0.56244790	     -1.19314149	     87.24936529	    -42.45602880	     -6.04945979	   -100.89684873	     -6.92453161	      0.00000000	      0.00000000	     -1.76098222	     24.62430935	     18.89940018	     -0.00000000	     95.03431555	    -47.47769802	     -0.26968566	   -101.94326774	     -7.33574810	     -0.00000000	     -0.00000000	     -1.77924567	     22.16371947	     19.64206688	      0.00000000	    -20.54312640	      4.22588713	      0.00607858
      2.46000000	    -18.35160127	     -2.27497390	     -2.27899878	      0.14027808	      0.56641522	     -1.19280341	     86.79679393	    -42.22398097	     -6.29422362	   -100.13050622	     -6.58199920	     -0.00000000	     -0.00000000	     -1.74760702	     24.36764409	     18.88986503	      0.00000000	     94.55272735	    -47.46522920	     -0.44831163	   -101.14542814	     -6.95284661	      0.00000000	      0.00000000	     -1.76532074	     21.93768826	     19.64515790	      0.00000000	    -20.04930003	      4.33203622	      0.26167356
      2.46500000	    -18.68230620	     -2.27018296	     -2.30605862	      0.14023547	      0.57032468	     -1.19256171	     86.39442174	    -42.04069541	     -6.47364264	    -99.35647394	     -6.20970992	      0.00000000	      0.00000000	     -1.73409760	     24.13470829	     18.88704397	      0.00000000	     94.07637593	    -47.39725742	     -0.67178428	   -100.35577067	     -6.58473339	     -0.00000000	     -0.00000000	     -1.75153862	     21.69854812	     19.64681443	     -0.00000000	    -19.50740563	      4.28548561	      0.22703026
      2.47000000	    -18.98868537	     -2.17084478	     -2.37306112	      0.14022034	      0.57428320	     -1.19214183	     86.07857078	    -41.82249904	     -6.48746614	    -98.59062167	     -5.81652474	      0.00000000	      0.00000000	     -1.72073096	     23.89331746	     18.88437446	      0.00000000	     93.44564771	    -47.38597628	     -1.04229989	    -99.53890560	     -6.19577880	      0.00000000	      0.00000000	     -1.73728164	     21.47587050	     19.64883550	     -0.00000000	    -18.96704360	      4.20058795	      0.38165218
